<svg xmlns="http://www.w3.org/2000/svg" viewBox="0 0 32 32">
  <path d="M 28.00,16.00 L 27.93,17.25 L 27.74,18.49 L 27.41,19.71 L 26.96,20.88 L 26.39,22.00 L 25.71,23.05 L 24.92,24.03 L 24.03,24.92 L 23.05,25.71 L 22.00,26.39 L 20.88,26.96 L 19.71,27.41 L 18.49,27.74 L 17.25,27.93 L 16.00,28.00 L 14.75,27.93 L 13.51,27.74 L 12.29,27.41 L 11.12,26.96 L 10.00,26.39 L 8.95,25.71 L 7.97,24.92 L 7.08,24.03 L 6.29,23.05 L 5.61,22.00 L 5.04,20.88 L 4.59,19.71 L 4.26,18.49 L 4.07,17.25 L 4.00,16.00 L 4.07,14.75 L 4.26,13.51 L 4.59,12.29 L 5.04,11.12 L 5.61,10.00 L 6.29,8.95 L 7.08,7.97 L 7.97,7.08 L 8.95,6.29 L 10.00,5.61 L 11.12,5.04 L 12.29,4.59 L 13.51,4.26 L 14.75,4.07 L 16.00,4.00 L 17.25,4.07 L 18.49,4.26 L 19.71,4.59 L 20.88,5.04 L 22.00,5.61 L 23.05,6.29 L 24.03,7.08 L 24.92,7.97 L 25.71,8.95 L 26.39,10.00 L 26.96,11.12 L 27.41,12.29 L 27.74,13.51 L 27.93,14.75 L 28.00,16.00 L 20.00,16.00 L 20.00,15.88 L 19.98,15.58 L 19.94,15.29 L 19.88,15.00 L 19.80,14.71 L 19.71,14.42 L 19.59,14.15 L 19.46,13.88 L 19.30,13.61 L 19.13,13.36 L 18.94,13.12 L 18.74,12.89 L 18.52,12.68 L 18.28,12.47 L 18.02,12.29 L 17.76,12.11 L 17.48,11.96 L 17.18,11.83 L 16.88,11.71 L 16.56,11.61 L 16.23,11.54 L 15.90,11.48 L 15.56,11.45 L 15.22,11.45 L 14.87,11.46 L 14.51,11.51 L 14.16,11.57 L 13.81,11.67 L 13.46,11.79 L 13.11,11.93 L 12.78,12.11 L 12.45,12.31 L 12.13,12.53 L 11.82,12.78 L 11.53,13.06 L 11.25,13.36 L 10.99,13.69 L 10.75,14.03 L 10.54,14.41 L 10.34,14.80 L 10.18,15.21 L 10.04,15.64 L 9.93,16.08 L 9.86,16.54 L 9.81,17.02 L 9.81,17.50 L 9.83,17.99 L 9.90,18.48 L 10.00,18.98 L 10.14,19.47 L 10.32,19.96 L 10.54,20.45 L 10.79,20.93 L 11.09,21.39 L 11.43,21.84 L 11.80,22.27 L 12.22,22.68 L 12.67,23.06 L 13.16,23.42 L 13.67,23.74 L 14.23,24.03 L 14.81,24.28 L 15.42,24.48 L 16.05,24.65 L 16.70,24.77 L 17.38,24.84 L 18.07,24.87 L 18.77,24.84 L 19.47,24.75 L 20.19,24.62 L 20.90,24.42 L 21.60,24.17 L 22.30,23.86 L 22.98,23.50 L 23.65,23.07 L 24.29,22.59 L 24.90,22.06 L 25.48,21.47 L 26.03,20.83 L 26.53,20.14 L 26.99,19.40 L 16.00,16.00 Z" fill="#23a67a"/>
</svg>
