<svg xmlns="http://www.w3.org/2000/svg" viewBox="3.70 3.70 24.60 24.60">
  <path d="M 15.30,3.72 L 14.44,3.80 L 13.19,4.02 L 11.98,4.38 L 10.81,4.85 L 9.69,5.44 L 8.65,6.14 L 7.66,6.96 L 6.78,7.86 L 5.99,8.85 L 5.31,9.92 L 4.74,11.06 L 4.29,12.23 L 3.97,13.45 L 3.85,14.11 L 3.72,15.35 L 3.72,16.62 L 3.84,17.87 L 4.10,19.11 L 4.49,20.33 L 4.98,21.47 L 5.61,22.59 L 6.33,23.60 L 7.18,24.57 L 7.66,25.04 L 8.60,25.82 L 9.67,26.54 L 10.78,27.14 L 11.95,27.61 L 13.17,27.97 L 14.41,28.20 L 15.68,28.30 L 16.93,28.26 L 18.17,28.11 L 18.83,27.97 L 20.02,27.62 L 21.22,27.14 L 22.33,26.54 L 23.38,25.84 L 24.36,25.03 L 25.22,24.14 L 25.66,23.61 L 26.39,22.59 L 27.00,21.50 L 27.51,20.33 L 27.89,19.14 L 28.15,17.89 L 28.28,16.65 L 28.28,15.89 L 28.17,15.76 L 28.02,15.70 L 27.84,15.74 L 27.73,15.86 L 27.64,17.13 L 27.54,17.43 L 26.96,18.78 L 26.27,19.97 L 25.62,20.84 L 25.03,21.50 L 24.29,22.19 L 23.73,22.63 L 23.00,23.13 L 22.11,23.61 L 21.29,23.96 L 20.38,24.25 L 19.57,24.43 L 18.63,24.54 L 17.71,24.55 L 16.80,24.47 L 15.91,24.30 L 14.97,24.01 L 14.08,23.61 L 13.27,23.12 L 12.53,22.55 L 11.82,21.84 L 11.29,21.14 L 10.80,20.30 L 10.45,19.44 L 10.22,18.58 L 10.12,17.71 L 10.14,16.77 L 10.30,15.86 L 10.57,15.05 L 10.96,14.27 L 11.44,13.60 L 11.87,13.14 L 12.33,12.75 L 12.81,12.43 L 13.35,12.16 L 13.88,11.96 L 14.46,11.82 L 15.02,11.76 L 15.61,11.76 L 16.42,11.89 L 17.21,12.16 L 17.92,12.58 L 18.53,13.11 L 19.00,13.70 L 19.35,14.34 L 19.61,15.17 L 19.71,16.09 L 19.79,16.22 L 19.92,16.29 L 28.00,15.10 L 28.17,14.99 L 28.24,14.79 L 28.16,14.13 L 27.90,12.89 L 27.52,11.70 L 27.01,10.51 L 26.40,9.43 L 25.67,8.40 L 24.82,7.43 L 23.91,6.58 L 22.89,5.81 L 21.83,5.17 L 21.22,4.86 L 20.05,4.39 L 18.86,4.04 L 17.61,3.81 L 16.34,3.70 L 15.30,3.72 Z" fill="#23a67a"/>
</svg>